<svg width="78" height="68" viewBox="0 0 78 68" fill="none" xmlns="http://www.w3.org/2000/svg">
<path d="M44.5313 6.29334L38.6972 12.1072L32.8631 6.34233C29.1886 3.17153 24.4365 1.50096 19.5669 1.66812C14.6974 1.83528 10.0733 3.8277 6.62903 7.24287C3.18471 10.658 1.17687 15.2414 1.01114 20.0669C0.845409 24.8924 2.53415 29.6004 5.73618 33.2397L11.5703 39.0209L25.1667 52.4941L38.6972 66L52.2936 52.5268L65.8901 39.0536L71.6582 33.2397C75.1362 29.6406 77.0533 24.8348 76.9989 19.852C76.9444 14.8692 74.9227 10.1057 71.3668 6.58209C67.811 3.05849 63.004 1.05509 57.9755 1.00112C52.9471 0.947146 48.0974 2.84689 44.4654 6.29334H44.5313Z" stroke="#703B3C" stroke-width="2"/>
</svg>
