<svg width="72" height="72" viewBox="0 0 72 72" fill="none" xmlns="http://www.w3.org/2000/svg">
<path d="M2.80047 60.0092L2.78666 59.9727C1.98685 57.9162 1.39948 55.4927 1.22721 51.7241C1.04362 47.7002 1 46.4561 1 36.0232C1 25.5924 1.04616 24.3453 1.22732 20.3223C1.39963 16.5571 1.98917 14.1287 2.78647 12.0674L2.79719 12.0389C3.58727 9.94138 4.82498 8.04121 6.42414 6.47064L6.44658 6.44861L6.46861 6.42617C8.04048 4.82494 9.94134 3.58845 12.0371 2.80047L12.0732 2.78666C14.1298 1.98685 16.5534 1.39948 20.3218 1.22721C24.3457 1.04362 25.5924 1 36.0229 1C46.4536 1 47.6996 1.04613 51.7224 1.22724C55.4884 1.39952 57.917 1.98899 59.9787 2.78636L60.0071 2.79719C62.1045 3.58727 64.0048 4.82498 65.5754 6.42414L65.5971 6.44636L65.6196 6.46817C67.2189 8.03886 68.4564 9.93958 69.246 12.0377L69.2592 12.0732C70.0591 14.1298 70.6467 16.5534 70.8187 20.3218M1.22732 20.3223V21.3371M20.3218 1.22721H21.3392M1.22721 51.7241L1.28892 52.0491M1.22721 51.7241V50.7069M1.22732 21.3371C1.24139 21.0147 1.25657 20.6786 1.27282 20.3212C1.46163 16.2015 2.16196 13.7945 2.8295 12.0872C3.69345 9.85764 4.78784 8.17521 6.45981 6.49632C8.04903 4.86606 9.98099 3.60978 12.1157 2.81845C13.8154 2.1592 16.216 1.46097 20.3202 1.27285C20.6787 1.25657 21.0158 1.24135 21.3392 1.22721M1.22732 21.3371C1.07822 24.7463 1.04616 26.627 1.04616 36.0232C1.04616 45.416 1.07822 47.2994 1.22721 50.7069M1.22732 21.3371L1.22721 50.7069M2.80047 60.0092C3.58845 62.1047 4.82494 64.0054 6.42617 65.5775L6.44857 65.5996L6.47057 65.6217C8.04122 67.221 9.94146 68.4589 12.039 69.2488L12.0703 69.2606C14.1288 70.0589 16.5536 70.6466 20.3218 70.819M2.80047 60.0092L2.75324 59.7601M2.75324 59.7601L1.28892 52.0491M2.75324 59.7601C2.13131 58.1173 1.49092 55.8246 1.28892 52.0491M2.75324 59.7601C2.77505 59.818 2.79682 59.8747 2.8186 59.9307C3.60728 62.0569 4.85692 63.9822 6.47775 65.5679C8.06303 67.1886 9.98751 68.4379 12.113 69.2267C13.8187 69.8909 16.2222 70.5854 20.3212 70.7733C24.4578 70.9616 25.7358 70.9999 36.0229 70.9999C46.3103 70.9999 47.5895 70.9616 51.7261 70.7733C55.8299 70.585 58.2306 69.8869 59.9304 69.2278C62.057 68.4394 63.9827 67.1893 65.5684 65.5679C67.1887 63.9826 68.438 62.0583 69.2268 59.9329C69.8911 58.2271 70.5855 55.8239 70.7731 51.7249C70.9613 47.5882 71 46.3076 71 36.0232C71 25.7384 70.9613 24.4567 70.7731 20.3202C70.5841 16.1947 69.8796 13.7904 69.2172 12.0892C68.3514 9.85395 67.2535 8.16346 65.5658 6.47572C63.8814 4.79469 62.1955 3.69606 59.9584 2.82936C58.2512 2.16189 55.8454 1.46167 51.7261 1.27285C51.3676 1.25657 51.0309 1.24139 50.7078 1.22724M1.28892 52.0491C1.2832 51.9426 1.27786 51.835 1.27285 51.726C1.25657 51.3675 1.24135 51.0304 1.22721 50.7069M50.7078 1.22724H51.7224M50.7078 1.22724L21.3392 1.22721M50.7078 1.22724C47.2999 1.07825 45.4169 1.04616 36.0229 1.04616C26.6299 1.04616 24.7466 1.07822 21.3392 1.22721M70.8187 51.7241C70.6467 55.4923 70.0591 57.9173 69.2607 59.9756L69.2489 60.007C68.4586 62.1047 67.2211 64.0047 65.6218 65.5753L65.5993 65.5974L65.5776 65.6198C64.0055 67.221 62.1049 68.4574 60.0089 69.2455L59.9728 69.2595C57.9163 70.0593 55.4925 70.6466 51.7242 70.819M29.794 51.0613C31.7688 51.8792 33.8853 52.3003 36.0229 52.3003C40.34 52.3003 44.4804 50.5853 47.5331 47.533C50.5855 44.4802 52.3005 40.3399 52.3005 36.0232C52.3005 31.706 50.5855 27.5658 47.5331 24.5131C44.4804 21.4606 40.34 19.7456 36.0229 19.7456C33.8853 19.7456 31.7688 20.1666 29.794 20.9847C27.8189 21.8027 26.0247 23.0017 24.5132 24.5131C23.0017 26.0247 21.8027 27.8191 20.9847 29.7939C20.1667 31.7686 19.7456 33.8856 19.7456 36.0232C19.7456 38.1607 20.1667 40.2773 20.9847 42.252C21.8027 44.2271 23.0017 46.0213 24.5132 47.533C26.0247 49.0442 27.8189 50.2434 29.794 51.0613ZM24.4769 24.4769C27.5393 21.4147 31.6925 19.6943 36.0229 19.6943C40.3537 19.6943 44.5069 21.4147 47.5692 24.4769C50.6315 27.5391 52.3517 31.6924 52.3517 36.0232C52.3517 40.3536 50.6315 44.5068 47.5692 47.5691C44.5069 50.6314 40.3537 52.3515 36.0229 52.3515C31.6925 52.3515 27.5393 50.6314 24.4769 47.5691C21.4147 44.5068 19.6944 40.3536 19.6944 36.0232C19.6944 31.6924 21.4147 27.5391 24.4769 24.4769ZM61.5463 15.8926C61.5463 17.1321 61.0538 18.3209 60.1777 19.1974C59.3012 20.0738 58.1123 20.5662 56.8729 20.5662C55.6332 20.5662 54.4447 20.0738 53.5682 19.1974C52.6917 18.3209 52.1991 17.1321 52.1991 15.8926C52.1991 14.6531 52.6917 13.4644 53.5682 12.5879C54.4447 11.7115 55.6332 11.2191 56.8729 11.2191C58.1123 11.2191 59.3012 11.7115 60.1777 12.5879C61.0538 13.4644 61.5463 14.6531 61.5463 15.8926Z" stroke="#F2E3C8" stroke-width="2" stroke-linejoin="round"/>
</svg>
