<svg width="451" height="451" viewBox="0 0 451 451" fill="none" xmlns="http://www.w3.org/2000/svg">
<g clip-path="url(#clip0_844_13088)">
<path d="M450.58 225.29C450.58 349.71 349.71 450.58 225.29 450.58C100.87 450.58 0 349.71 0 225.29C0 100.87 100.87 0 225.29 0C349.71 0 450.58 100.87 450.58 225.29ZM447.72 225.28C447.72 102.44 348.13 2.85 225.29 2.85C102.45 2.85 2.86 102.44 2.86 225.28C2.86 348.12 102.44 447.71 225.29 447.71C348.14 447.71 447.72 348.13 447.72 225.28Z" fill="#703B3C"/>
<path d="M402.13 267.39L420.08 267.37L420.14 287.07C420.19 287.47 420.44 288.54 420.12 288.63L417.6 289.32L416.45 282.01C413.6 286.15 409.94 289.06 404.91 289.84C393.84 291.56 384.28 284.78 382.11 273.87C380.52 265.87 381.69 257.33 387.38 251.2C392.94 245.21 401.7 243.96 409.27 246.73C414.87 248.78 419.3 253.98 419.13 259.52C416.64 259.89 415.25 258.37 414.5 256.51C412.06 250.38 405.42 248.16 399.5 248.83C393.58 249.5 388.67 253.35 386.68 259.6C384.69 265.85 384.92 272.55 387.73 278.27C391.09 285.08 398.24 287.88 405.61 286.33C412.98 284.78 417.07 277.81 416.59 270.75L402.07 270.78L402.12 267.41L402.13 267.39Z" fill="#703B3C"/>
<path d="M135.85 216.59L134.6 204.45C134.23 200.83 131.22 197.68 127.66 197.68H110.84L110.88 216.58L106.92 216.73V173.85L127.62 173.96C133.61 173.99 138.65 177.66 139.44 183.02C140.31 188.93 137.53 194.51 131.42 195.9C136.21 197.22 138.02 200.16 138.54 204.5L140.01 216.68L135.85 216.59ZM127.99 194.13C132.86 194.04 135.64 189.3 135.68 185.91C135.72 182.1 133.21 177.51 128.56 177.44L110.84 177.18L110.86 194.43L127.99 194.12V194.13Z" fill="#703B3C"/>
<path d="M340.58 207.97C335.85 216.8 325.81 219.37 316.93 216.73C308.05 214.09 303.24 205.11 303.24 195.42C303.24 186 307.89 177.1 316.16 174.26C325.1 171.19 335.1 173.56 340.1 181.9C344.75 189.65 345.08 199.59 340.59 207.97H340.58ZM335.94 208.22C341.16 200.52 341.01 190.3 336.2 182.87C332.55 177.23 326.16 175.36 319.55 176.78C314.68 177.82 309.81 182.07 308.21 188.11C305.15 199.62 309.33 211.84 319.72 213.99C325.77 215.24 332.16 213.8 335.94 208.23V208.22Z" fill="#703B3C"/>
<path d="M248.22 287.59C241.82 291.02 234.13 290.79 227.91 288.19C222.67 286 219.81 281.02 220.43 275.32L224.3 275.4C224.3 280.21 226.29 283.87 230.61 285.45C235.43 287.21 241.29 287.35 245.83 284.7C248.18 283.33 249.89 280.24 249.96 277.9C250.03 275.56 247.47 271.94 244.84 271.24L230.5 267.42C226.92 266.47 223.29 264.08 222.29 261.12C220.96 257.16 221.95 252.63 224.82 249.58C228.75 245.4 234.85 244.82 240.39 245.68C247.29 246.75 252.5 251.96 252.2 258.59C250.59 258.6 248.85 258.64 248.63 258.05L247.61 255.34C245.42 249.53 239.09 247.87 233.08 248.98C229.86 249.57 227.04 251.79 226.01 254.46C224.98 257.13 225.98 262.02 229.07 262.88L245.53 267.49C249.92 268.72 253.31 272.25 253.71 276C254.19 280.42 252.66 285.21 248.22 287.6V287.59Z" fill="#703B3C"/>
<path d="M270.5 216.53L270.4 195.93L244.82 195.92L244.73 216.61L240.79 216.38L240.77 174.42L244.73 173.64L244.77 192.57L270.46 192.58L270.5 173.63L274.49 174.45L274.47 216.38L270.5 216.53Z" fill="#703B3C"/>
<path d="M76.1698 192.99L76.6298 196.31L56.2298 196.33L56.2698 216.58H52.2798V173.88L77.2198 173.93C77.6498 173.85 78.8298 173.56 78.8998 173.9L79.5298 177.2L56.2598 177.3V193H76.1798L76.1698 192.99Z" fill="#703B3C"/>
<path d="M396.34 192.99L396.89 196.33L376.5 196.32L376.54 216.67L372.51 216.58V173.89L399.68 173.91L399.51 177.27L376.52 177.26L376.51 192.98L396.34 192.99Z" fill="#703B3C"/>
<path d="M169.747 173.668L169.732 216.708L173.812 216.709L173.827 173.669L169.747 173.668Z" fill="#703B3C"/>
<path d="M205.37 173.631L205.347 216.691L209.397 216.694L209.42 173.634L205.37 173.631Z" fill="#703B3C"/>
<path d="M318.709 246.313L318.694 289.413L322.784 289.414L322.799 246.314L318.709 246.313Z" fill="#703B3C"/>
<path d="M282.817 246.352L282.78 289.442L286.86 289.445L286.897 246.355L282.817 246.352Z" fill="#703B3C"/>
<path d="M67.4599 288.92L64.4599 289.21L64.4299 275.56L51.2199 275.57L51.1699 272.54L64.4199 272.5L64.4799 259.3L67.4499 259.53L67.4999 272.51L80.5699 272.56L80.7799 275.56L67.5099 275.57L67.4599 288.92Z" fill="#703B3C"/>
<path d="M374.6 270.61H329.36V274.58H374.6V270.61Z" fill="#703B3C"/>
<path d="M196.87 198.32H181.8V202.05H196.87V198.32Z" fill="#703B3C"/>
<path d="M349.409 198.168L349.359 202.028L364.438 202.223L364.487 198.363L349.409 198.168Z" fill="#703B3C"/>
<path d="M146.361 198.301L146.359 202.181L161.399 202.189L161.401 198.309L146.361 198.301Z" fill="#703B3C"/>
<path d="M282.453 198.301L282.451 202.171L297.501 202.179L297.503 198.309L282.453 198.301Z" fill="#703B3C"/>
<path d="M232.81 198.32H217.77V202.01H232.81V198.32Z" fill="#703B3C"/>
<path d="M98.9399 198.32H83.9199V202.2H98.9399V198.32Z" fill="#703B3C"/>
<path d="M274.77 270.65H259.72V274.58H274.77V270.65Z" fill="#703B3C"/>
<path d="M310.41 270.57L295.36 270.625L295.374 274.585L310.424 274.53L310.41 270.57Z" fill="#703B3C"/>
</g>
<defs>
<clipPath id="clip0_844_13088">
<rect width="450.58" height="450.58" fill="white"/>
</clipPath>
</defs>
</svg>
