<svg xmlns="http://www.w3.org/2000/svg" viewBox="0 0 44 44" fill="none">
<path d="M21.9989 0C12.9142 0 8.04908 1.32646 4.65141 4.73514C0.791026 8.60434 0 14.4368 0 22.0011C0 31.0175 1.30663 35.8341 4.66243 39.1833C8.04908 42.559 13.2337 44 21.9989 44C29.5941 44 35.4728 43.1803 39.4742 39.1767C43.2773 35.3736 43.9978 30.2066 43.9978 22.0011C43.9978 13.7956 43.242 8.49637 39.4742 4.72853C36.114 1.37052 31.0505 0 21.9989 0ZM34.7809 28.6995C33.8973 29.3737 32.8816 29.7637 31.8195 30.0414C30.6385 30.3476 29.4354 30.5173 28.2236 30.6407C26.6591 30.7993 25.0903 30.8787 23.5193 30.8897C23.484 30.8897 23.4465 30.8897 23.4091 30.8875C22.7811 30.8875 22.1531 30.8875 21.5252 30.8875C21.4789 30.8875 21.4326 30.8919 21.3841 30.8919C20.4191 30.8831 19.454 30.8588 18.4889 30.8015C17.9777 30.7707 17.4665 30.7443 16.9575 30.7068C16.356 30.6627 15.7544 30.6098 15.1551 30.5437C14.3464 30.4534 13.54 30.3476 12.7446 30.1758C11.7023 29.951 10.7284 29.5588 9.83384 28.9793C9.01417 28.4483 8.3223 27.7917 7.8684 26.9103C7.35941 25.9232 7.32856 24.8832 7.56433 23.8255C8.03586 21.7014 9.77435 20.5667 11.4401 20.3574C11.8566 20.3045 12.2708 20.3309 12.6829 20.3948L12.6983 20.4124L12.7071 20.4036C12.7027 20.397 12.6983 20.3926 12.6939 20.386C12.5683 20.0731 12.4713 19.7514 12.4361 19.4121C12.3369 18.4448 12.4912 17.5105 12.8503 16.6182C13.6149 14.7166 14.9832 13.5378 17.0324 13.1963C17.2087 13.1676 17.3916 13.1786 17.5612 13.1125H17.7177C17.7573 13.1588 17.8124 13.1434 17.8609 13.1434C18.0812 13.1456 18.3016 13.1434 18.5219 13.1456C19.1256 13.1808 19.7007 13.3417 20.2494 13.5841C21.3643 14.0754 22.2964 14.7937 22.9464 15.8426C23.1469 16.1643 23.2813 16.5102 23.3452 16.9112C23.9115 16.1554 24.6254 15.6575 25.5288 15.4526C26.43 15.2476 27.2893 15.3754 28.0891 15.8337C28.8846 16.2876 29.4398 16.9531 29.7395 17.8168C30.037 18.6717 30.0149 19.5289 29.6998 20.4036C29.9907 20.3133 30.2573 20.2384 30.5327 20.1921C32.2029 19.9057 33.6682 20.3221 34.9131 21.4723C35.7879 22.2809 36.3718 23.2615 36.5282 24.4557C36.7596 26.1986 36.1889 27.6286 34.7809 28.7039V28.6995Z" fill="#ffffff"></path>
</svg>