<svg width="63" height="72" viewBox="0 0 63 72" fill="none" xmlns="http://www.w3.org/2000/svg">
<path d="M22.5978 26.7278C10.6459 26.9878 1 36.8043 1 48.8475C1 54.6659 3.25722 59.9645 6.94342 63.93C10.9869 68.2693 16.7517 71 23.1337 71C35.3289 71 45.2672 61.0695 45.2672 48.8475V24.3874C49.9764 27.768 55.7577 29.7668 61.9933 29.7668V17.7403C60.7753 17.7403 59.6063 17.6101 58.486 17.3663C54.8806 16.6026 51.7145 14.6522 49.3762 11.9704C46.8103 9.02879 45.2679 5.19318 45.2679 1H42.0528M49.3762 11.9704C49.3139 11.9297 49.2516 11.8885 49.1896 11.847M14.9495 54.7309C13.7478 53.0733 13.0333 51.0419 13.0333 48.8313C13.0333 43.2569 17.5639 38.7223 23.134 38.7223C24.1733 38.7223 25.18 38.9008 26.1218 39.1934V26.9067C25.1474 26.7766 24.157 26.6952 23.134 26.6952C22.9553 26.6952 21.5164 26.7909 21.3378 26.7909M42.0356 1H33.2342L33.2181 49.2213C33.0231 54.6172 28.5736 58.9568 23.1337 58.9568C19.7559 58.9568 16.7842 57.2828 14.933 54.7474" stroke="#F2E3C8" stroke-width="2" stroke-linejoin="round"/>
</svg>
